<?xml version="1.0" encoding="UTF-8"?><svg id="Calque_1" xmlns="http://www.w3.org/2000/svg" viewBox="0 0 50 30"><defs><style>.cls-1{fill:#aaa;}.cls-2{fill:#fff;}.cls-3{font-family:DrukText-Super, 'Druk Text';font-size:9.16px;}.cls-4{font-family:DrukText-Medium, 'Druk Text';font-size:5.5px;font-weight:500;}.cls-5{fill:#555;}</style></defs><text transform="translate(28.88 15.45)"><tspan class="cls-4"><tspan x="0" y="0">xelle</tspan></tspan><tspan class="cls-3"><tspan x="0" y="7.79">REAL</tspan></tspan></text><path class="cls-2" d="M4.99,17.56l4.94-.02v-3.21c0-3.31-1.46-4.42-3.32-4.39l-1.62.02v7.6ZM9.95,23.32v-2.29l-4.96.02v2.27h-2.77V6.43h4.39c3.5,0,6.07,2.53,6.08,7.82l.02,9.07h-2.77Z"/><path class="cls-1" d="M10.22,17.56l4.94-.02v-3.21c0-3.31-1.46-4.42-3.32-4.39l-1.62.02v7.6ZM15.18,23.32v-2.29l-4.96.02v2.27h-2.77V6.43h4.39c3.5,0,6.07,2.53,6.08,7.82l.02,9.07h-2.77Z"/><path class="cls-5" d="M15.45,17.56l4.94-.02v-3.21c0-3.31-1.46-4.42-3.32-4.39l-1.62.02v7.6ZM20.41,23.32v-2.29l-4.96.02v2.27h-2.77V6.43h4.39c3.5,0,6.07,2.53,6.08,7.82l.02,9.07h-2.77Z"/><path d="M20.68,17.56l4.94-.02v-3.21c0-3.31-1.46-4.42-3.32-4.39l-1.62.02v7.6ZM25.64,23.32v-2.29l-4.96.02v2.27h-2.77V6.43h4.39c3.5,0,6.07,2.53,6.08,7.82l.02,9.07h-2.77Z"/></svg>