<?xml version="1.0" encoding="UTF-8"?><svg id="Calque_1" xmlns="http://www.w3.org/2000/svg" viewBox="0 0 100 60"><defs><style>.cls-1{font-family:DrukText-Medium, 'Druk Text';font-size:11.46px;font-weight:500;}.cls-2{fill:#aaa;}.cls-3{fill:#fff;}.cls-4{font-family:DrukText-Super, 'Druk Text';font-size:19.11px;}.cls-5{fill:#555;}</style></defs><text transform="translate(58.27 30.9)"><tspan class="cls-1"><tspan x="0" y="0">xelle</tspan></tspan><tspan class="cls-4"><tspan x="0" y="16.24">REAL</tspan></tspan></text><path class="cls-3" d="M8.46,35.3l10.3-.05v-6.69c0-6.89-3.05-9.21-6.92-9.16l-3.38.05v15.85ZM18.8,47.32v-4.78l-10.34.05v4.73H2.69V12.11h9.15c7.29,0,12.65,5.28,12.68,16.3l.04,18.91h-5.77Z"/><path class="cls-2" d="M19.37,35.3l10.3-.05v-6.69c0-6.89-3.05-9.21-6.92-9.16l-3.38.05v15.85ZM29.71,47.32v-4.78l-10.34.05v4.73h-5.77V12.11h9.15c7.29,0,12.65,5.28,12.68,16.3l.04,18.91h-5.77Z"/><path class="cls-5" d="M30.27,35.3l10.3-.05v-6.69c0-6.89-3.05-9.21-6.92-9.16l-3.38.05v15.85ZM40.61,47.32v-4.78l-10.34.05v4.73h-5.77V12.11h9.15c7.29,0,12.65,5.28,12.68,16.3l.04,18.91h-5.77Z"/><path d="M41.18,35.3l10.3-.05v-6.69c0-6.89-3.05-9.21-6.92-9.16l-3.38.05v15.85ZM51.52,47.32v-4.78l-10.34.05v4.73h-5.77V12.11h9.15c7.29,0,12.65,5.28,12.68,16.3l.04,18.91h-5.77Z"/></svg>