<?xml version="1.0" encoding="UTF-8"?><svg id="Calque_1" xmlns="http://www.w3.org/2000/svg" viewBox="0 0 100 40"><defs><style>.cls-1{fill:#aaa;}.cls-2{fill:#fff;}.cls-3{fill:#555;}</style></defs><path d="M8.4,25.65l10.42-.05v-6.77c0-6.97-3.09-9.31-7-9.26l-3.42.05v16.03ZM18.86,37.81v-4.83l-10.46.05v4.78H2.57V2.19h9.26c7.38,0,12.79,5.34,12.83,16.49l.04,19.14h-5.83Z"/><path class="cls-3" d="M19.44,25.65l10.42-.05v-6.77c0-6.97-3.09-9.31-7-9.26l-3.42.05v16.03ZM29.9,37.81v-4.83l-10.46.05v4.78h-5.83V2.19h9.26c7.38,0,12.79,5.34,12.83,16.49l.04,19.14h-5.83Z"/><path class="cls-1" d="M30.47,25.65l10.42-.05v-6.77c0-6.97-3.09-9.31-7-9.26l-3.42.05v16.03ZM40.93,37.81v-4.83l-10.46.05v4.78h-5.83V2.19h9.26c7.38,0,12.79,5.34,12.83,16.49l.04,19.14h-5.83Z"/><path class="cls-2" d="M41.51,25.65l10.42-.05v-6.77c0-6.97-3.09-9.31-7-9.26l-3.42.05v16.03ZM51.97,37.81v-4.83l-10.46.05v4.78h-5.83V2.19h9.26c7.38,0,12.79,5.34,12.83,16.49l.04,19.14h-5.83Z"/><path class="cls-2" d="M61.3,18.52l-1.36-3.03h1.53l.78,2.05.78-2.05h1.43l-1.29,3.04,1.37,3.29h-1.46l-.86-2.19-.87,2.19h-1.43l1.38-3.3Z"/><path class="cls-2" d="M67.26,21.94h-.21c-1.22,0-1.89-.65-1.89-1.82v-2.92c0-1.16.64-1.82,1.92-1.82h.23c1.17,0,1.9.53,1.9,1.87v1.6h-2.63v1.19c0,.41.16.71.61.71.42,0,.6-.29.6-.7v-.56h1.41v.63c0,1.22-.65,1.82-1.96,1.82ZM67.83,17.82v-.64c0-.48-.21-.71-.63-.71s-.61.23-.61.71v.64h1.24Z"/><path class="cls-2" d="M70.35,21.82v-8.78h1.47v8.78h-1.47Z"/><path class="cls-2" d="M73.05,21.82v-8.78h1.47v8.78h-1.47Z"/><path class="cls-2" d="M77.78,21.94h-.21c-1.22,0-1.89-.65-1.89-1.82v-2.92c0-1.16.64-1.82,1.92-1.82h.23c1.17,0,1.9.53,1.9,1.87v1.6h-2.63v1.19c0,.41.16.71.61.71.42,0,.6-.29.6-.7v-.56h1.41v.63c0,1.22-.65,1.82-1.96,1.82ZM78.35,17.82v-.64c0-.48-.21-.71-.63-.71s-.61.23-.61.71v.64h1.24Z"/><path class="cls-2" d="M60.71,38.25v-14.38h6.34c1.93,0,3.07.97,3.07,2.98v.85c0,1.47-.56,2.32-1.55,2.76.99.37,1.58,1.08,1.58,2.47v4.04c0,.56.1.93.23,1.18v.1h-3.92c-.19-.19-.29-.54-.29-1.06v-3.56c0-.75-.17-1.04-.77-1.04h-.73v5.66h-3.96ZM65.37,29.61c.54,0,.81-.29.81-.89v-1.2c0-.64-.19-.91-.79-.91h-.71v3h.7Z"/><path class="cls-2" d="M79.37,27.22h-3.67v1.91h3.15v3.4h-3.15v2.34h3.77v3.38h-7.67v-14.38h7.58v3.34Z"/><path class="cls-2" d="M83.96,36.38l-.25,1.88h-3.46l2.22-14.38h5.32l2.47,14.38h-3.87l-.25-1.88h-2.18ZM85.74,33.4l-.27-1.93c-.21-1.45-.31-2.61-.41-3.56-.1.95-.21,2.11-.42,3.56l-.27,1.93h1.37Z"/><path class="cls-2" d="M95.43,34.68h3.05v3.58h-7.13v-14.38h4.08v10.8Z"/></svg>