<?xml version="1.0" encoding="UTF-8"?><svg id="Calque_1" xmlns="http://www.w3.org/2000/svg" viewBox="0 0 100 40"><defs><style>.cls-1{fill:#aaa;}.cls-2{fill:#fff;}.cls-3{fill:#555;}</style></defs><path d="M60.41,17.64l-1.34-2.99h1.51l.77,2.03.77-2.03h1.41l-1.27,3,1.35,3.25h-1.44l-.85-2.17-.86,2.17h-1.41l1.36-3.27Z"/><path d="M66.3,21.02h-.21c-1.2,0-1.87-.64-1.87-1.8v-2.89c0-1.15.63-1.8,1.9-1.8h.23c1.16,0,1.88.53,1.88,1.84v1.58h-2.6v1.18c0,.4.16.7.61.7.41,0,.6-.29.6-.69v-.55h1.4v.62c0,1.2-.64,1.8-1.94,1.8ZM66.87,16.95v-.63c0-.47-.21-.7-.62-.7s-.61.23-.61.7v.63h1.23Z"/><path d="M69.35,20.9v-8.67h1.46v8.67h-1.46Z"/><path d="M72.03,20.9v-8.67h1.46v8.67h-1.46Z"/><path d="M76.7,21.02h-.21c-1.2,0-1.87-.64-1.87-1.8v-2.89c0-1.15.63-1.8,1.9-1.8h.23c1.16,0,1.88.53,1.88,1.84v1.58h-2.6v1.18c0,.4.16.7.61.7.41,0,.6-.29.6-.69v-.55h1.4v.62c0,1.2-.64,1.8-1.94,1.8ZM77.26,16.95v-.63c0-.47-.21-.7-.62-.7s-.61.23-.61.7v.63h1.23Z"/><path d="M59.83,37.14v-14.21h6.27c1.91,0,3.04.96,3.04,2.94v.84c0,1.45-.55,2.29-1.53,2.73.97.36,1.57,1.07,1.57,2.45v3.99c0,.55.1.92.23,1.17v.1h-3.88c-.19-.19-.29-.54-.29-1.05v-3.51c0-.75-.17-1.03-.76-1.03h-.73v5.6h-3.92ZM64.43,28.6c.54,0,.8-.29.8-.88v-1.18c0-.63-.19-.9-.78-.9h-.71v2.96h.69Z"/><path d="M78.27,26.23h-3.63v1.89h3.11v3.36h-3.11v2.31h3.73v3.34h-7.58v-14.21h7.49v3.31Z"/><path d="M82.81,35.29l-.25,1.85h-3.42l2.2-14.21h5.25l2.45,14.21h-3.82l-.25-1.85h-2.16ZM84.57,32.35l-.27-1.91c-.21-1.43-.31-2.58-.4-3.52-.1.94-.21,2.08-.42,3.52l-.27,1.91h1.36Z"/><path d="M94.14,33.61h3.02v3.53h-7.05v-14.21h4.03v10.68Z"/><path class="cls-2" d="M9.16,25.3l10.3-.05v-6.69c0-6.89-3.05-9.21-6.92-9.16l-3.38.05v15.85ZM19.5,37.32v-4.78l-10.34.05v4.73H3.39V2.11h9.15c7.29,0,12.65,5.28,12.68,16.3l.04,18.91h-5.77Z"/><path class="cls-1" d="M20.07,25.3l10.3-.05v-6.69c0-6.89-3.05-9.21-6.92-9.16l-3.38.05v15.85ZM30.41,37.32v-4.78l-10.34.05v4.73h-5.77V2.11h9.15c7.29,0,12.65,5.28,12.68,16.3l.04,18.91h-5.77Z"/><path class="cls-3" d="M30.98,25.3l10.3-.05v-6.69c0-6.89-3.05-9.21-6.92-9.16l-3.38.05v15.85ZM41.32,37.32v-4.78l-10.34.05v4.73h-5.77V2.11h9.15c7.29,0,12.65,5.28,12.68,16.3l.04,18.91h-5.77Z"/><path d="M41.88,25.3l10.3-.05v-6.69c0-6.89-3.05-9.21-6.92-9.16l-3.38.05v15.85ZM52.22,37.32v-4.78l-10.34.05v4.73h-5.77V2.11h9.15c7.29,0,12.65,5.28,12.68,16.3l.04,18.91h-5.77Z"/></svg>